# xmcd
#
# Track frame offsets:
#	150
#	12533
#	26015
#	37622
#	50512
#	61212
#	73230
#	85412
#	97861
#	110066
#	122175
#	134939
#	147461
#	160000
#	172566
#	184490
#	197385
#	210767
#	225240
#	236872
#
# Disc length: 3335 seconds
#
# Revision: 2
# Processed by: cddbd v1.5.2PL0 Copyright (c) Steve Scherf et al.
# Submitted via: audiograbber 1.83.01
#
DISCID=120d0514
DTITLE=Various Artist - The History of Country and Western Music Vol. 13 
DYEAR=1947
DGENRE=Country
TTITLE0=Spade Cooley - Boggs Boogie (1947)
TTITLE1=Al Dexter - New Broom Boogie (1947)
TTITLE2=Roy Acuff - Wabash Cannonball (1947)
TTITLE3=Paul Howard - Drinking All My Troubles Away (1947)
TTITLE4=Bob Wills - Cowboy Stomp (1947)
TTITLE5=Al Dexter - Saturday Night Boogie (1947)
TTITLE6=Roy Acuff - I Saw the Light (1947)
TTITLE7=Bill Monroe - The Race Horse Song (1947)
TTITLE8=Floyd Tillman - I Love You So Much It Hurts (1947)
TTITLE9=Roy Acuff - Blue Eyes Crying in the Rain (1947)
TTITLE10=Merle Travis - Sixteen Tons (1947)
TTITLE11=Cliffie Stone - Silver Stars (1947)
TTITLE12=Lone Star Playboys - Banjo Boogie (1947)
TTITLE13=Sonny Hall - Better Make Up Your Mind (1947)
TTITLE14=Merle Travis - Nine Pound Hammer (1947)
TTITLE15=Miller Brothers - Shadows on my Memories (1947)
TTITLE16=Billy Braggs - XIT Song (1947)
TTITLE17=Homer Clemons - Operation Blues (1947)
TTITLE18=Link Davis - Texas Swing (1947)
TTITLE19=Dick Dyson - You Waited Too Long (1947)
EXTD=Tracks individually dated
EXTT0=
EXTT1=
EXTT2=
EXTT3=
EXTT4=
EXTT5=
EXTT6=
EXTT7=
EXTT8=
EXTT9=
EXTT10=
EXTT11=
EXTT12=
EXTT13=
EXTT14=
EXTT15=
EXTT16=
EXTT17=
EXTT18=
EXTT19=
PLAYORDER=
